<svg xmlns="http://www.w3.org/2000/svg" width="89.536" height="89.491" viewBox="0 0 89.536 89.491">
  <defs>
    <style>
      .cls-1 {
        fill: #365dff;
      }
    </style>
  </defs>
  <g id="noun_management_528079" transform="translate(-0.333 -2.1)">
    <g id="Group_11" data-name="Group 11" transform="translate(0.333 2.1)">
      <rect id="Rectangle_156" data-name="Rectangle 156" class="cls-1" width="3.314" height="2.891" transform="translate(32.997 6.645)"/>
      <rect id="Rectangle_157" data-name="Rectangle 157" class="cls-1" width="2.891" height="3.314" transform="translate(6.645 32.997)"/>
      <rect id="Rectangle_158" data-name="Rectangle 158" class="cls-1" width="2.891" height="3.314" transform="translate(18.066 53.586) rotate(135)"/>
      <rect id="Rectangle_159" data-name="Rectangle 159" class="cls-1" width="2.891" height="3.314" transform="translate(16.014 13.666) rotate(45)"/>
      <path id="Path_2" data-name="Path 2" class="cls-1" d="M89.447,68.324a25.979,25.979,0,0,0-19.46-15.564l-1.058-.176L59.763,70.809,50.6,52.583l-1.058.176a25.9,25.9,0,0,0-18.6,13.731l-1.322-5.27-.758-.247a24.931,24.931,0,0,1-3.807-1.586l-.723-.37-6.469,3.878-7.35-7.35,3.878-6.469-.37-.723a25.69,25.69,0,0,1-1.586-3.807l-.247-.758L4.873,41.954v-10.4l7.315-1.833.247-.758a24.931,24.931,0,0,1,1.586-3.807l.37-.705-3.878-6.469,7.35-7.368,6.469,3.878.723-.37a25.69,25.69,0,0,1,3.807-1.586l.758-.247,1.833-7.315h10.4l1.833,7.315.758.247a24.93,24.93,0,0,1,3.807,1.586l.723.37,6.469-3.878,5.993,5.993c-.564-.053-1.11-.088-1.675-.088A16.822,16.822,0,0,0,47.23,22.142a18.055,18.055,0,1,0,2.38,27.145c2.82,2.891,6.328,4.812,10.153,4.812,9.342,0,16.869-11.334,16.869-20.711A16.9,16.9,0,0,0,66.267,17.823l.176-.3L55.9,6.983l-7.033,4.23a25.989,25.989,0,0,0-2.75-1.146L44.11,2.1H29.2l-1.992,7.95c-.917.335-1.833.705-2.75,1.146l-7.033-4.23L6.883,17.523l4.23,7.033a25.989,25.989,0,0,0-1.146,2.75L2,29.3V44.21L9.95,46.2c.335.917.705,1.833,1.146,2.75l-4.23,7.033L17.406,66.526l7.033-4.23a25.988,25.988,0,0,0,2.75,1.146L29.075,71a26.474,26.474,0,0,0,1.851,19.813l.405.776H88.142l.405-.776A26.4,26.4,0,0,0,89.447,68.324ZM36.654,51.913a15.159,15.159,0,1,1,8.831-27.463l-.212.37a8.238,8.238,0,0,0-.476.864c-.159.317-.317.635-.458.969-.071.176-.141.335-.212.511a9.9,9.9,0,0,0-.335.934,3.223,3.223,0,0,0-.141.441c-.141.458-.264.934-.37,1.41a1.032,1.032,0,0,0-.035.229c-.088.423-.141.846-.194,1.269a3.147,3.147,0,0,0-.035.405,14.88,14.88,0,0,0-.071,1.534,23.77,23.77,0,0,0,4.83,13.731A15.365,15.365,0,0,1,36.654,51.913ZM73.741,33.388c0,8.02-6.451,17.821-13.978,17.821-3.12,0-6.064-1.71-8.426-4.248l-.617-.74a21.715,21.715,0,0,1-4.812-11.07c0-.053-.018-.106-.018-.159-.053-.546-.088-1.075-.088-1.6a10.782,10.782,0,0,1,.071-1.3c.018-.141.035-.282.053-.405a7.343,7.343,0,0,1,.141-.864c.035-.159.053-.317.088-.476.053-.264.123-.511.194-.776.053-.159.088-.335.141-.494.071-.229.159-.458.247-.687q.264-.687.582-1.322c.018-.053.053-.106.071-.159a7.5,7.5,0,0,1,.476-.811c.035-.071.088-.141.123-.212.176-.264.353-.529.546-.776A13.936,13.936,0,0,1,59.763,19.41a15.7,15.7,0,0,1,1.816.123l.37.053a14.533,14.533,0,0,1,1.692.37c.035.018.088.018.123.035l.229.071A14.008,14.008,0,0,1,73.741,33.388ZM86.4,88.718H33.147a23.632,23.632,0,0,1-1-17.609l.247-.652c.053-.141.106-.3.159-.458.071-.194.123-.388.212-.582a23.073,23.073,0,0,1,16.27-13.626L59.8,77.208l10.77-21.417a23.147,23.147,0,0,1,16.27,13.626A23.9,23.9,0,0,1,86.4,88.718Z" transform="translate(-2 -2.1)"/>
      <rect id="Rectangle_160" data-name="Rectangle 160" class="cls-1" width="11.546" height="2.891" transform="translate(69.326 70.754)"/>
    </g>
  </g>
</svg>
