<svg xmlns="http://www.w3.org/2000/svg" width="63.37" height="90.261" viewBox="0 0 63.37 90.261">
  <defs>
    <style>
      .cls-1 {
        fill: #365dff;
      }
    </style>
  </defs>
  <g id="noun_Crystal_120782" transform="translate(-10.702 -4.834)">
    <path id="Path_7" data-name="Path 7" class="cls-1" d="M71.2,43.157l-4.55-16.439c-.136-.5-.541-.756-.915-.592L55.673,30.558a.814.814,0,0,0-.393.416l-4.821,10.42L49.6,16.115a1.064,1.064,0,0,0-.353-.8L36.426,4.975a.607.607,0,0,0-.922.185L26.954,17.907a1.226,1.226,0,0,0-.167.892l3.5,18.918H25.569c-.4,0-.733.439-.733.982v8.18l-4.771-7.7a.651.651,0,0,0-.661-.346L9.2,40.678a.919.919,0,0,0-.634.923L7.879,59.334a1.208,1.208,0,0,0,.171.683L20.495,79.772,19.2,86.859a1.261,1.261,0,0,0,.115.8.722.722,0,0,0,.528.409l8.642,1.084,6.605,5.781a.611.611,0,0,0,.4.159.539.539,0,0,0,.171-.028l6.093-1.974L47.3,95.062a.558.558,0,0,0,.481-.048l17.1-9.976a.916.916,0,0,0,.392-.553,1.293,1.293,0,0,0-.021-.761L61.667,73.408l9.52-29.521A1.282,1.282,0,0,0,71.2,43.157Zm-2.065-1.818L63.129,34.7l2.529-5.931Zm-6.644-7.126-4.923-2.424,7.335-3.23Zm-6.11-1.9.064-.026,5.775,2.839L60.133,46.4,49.621,49.338,50.034,46ZM31.993,89.878,23.38,66.221l6.534,4.494L34.7,92.243ZM28.04,55.756l1.7,13.738-6.628-4.56ZM26.3,41.039l3.052,6.1L26.3,48.7Zm-.019,8.715,3.523-1.8,5.655,8.437-6.986-2.315-2.24-4.1A1.339,1.339,0,0,0,26.282,49.754Zm5.084-9.538,4.687,12.919.227,3.011-5.974-8.907ZM40.255,23.85,36.8,7.568l11.082,8.94ZM39.7,25.015l.564,12.05L28.8,20.094Zm8.483-7.588.121,3.555L40.985,36.864,40.425,24.9Zm.994,28.461L46.352,54.6,41.1,38.474l7.254-15.75Zm4.313,25.529-6.86-3.009.979-3.39,6.207,2.522Zm-12.952,2.5,1.8-4.709h3.421L45.4,77.471Zm6.122-8.326L45.9,68.223H43.419Zm-.173,3.791,6.42,2.815-6.768,5.2ZM47.8,64.073l1.692-13.7,10.152-2.836L50.968,65.36Zm-.748.041L45.365,65.49,46.7,55.976l2.19-6.758Zm-1.079-8.228L44.524,66.175l-2.084,1.7L41.188,41.187ZM40.039,73.06,39.678,69.8v0l-.512-4.622a.2.2,0,0,0-.006-.02.543.543,0,0,0-.024-.09.374.374,0,0,0-.031-.087.171.171,0,0,0-.009-.025c-.01-.018-.024-.026-.034-.041a.615.615,0,0,0-.037-.055l-1.469-1.5-.576-7.673L41.7,68.706ZM36.76,62.552l-6.87-6.992L36.4,57.714Zm1.438,2.7-5.373,5.429-2.283-.706L28.768,55.65ZM32.585,71.61l1.764,15.629-3.6-16.2Zm.719-.188,5.228-5.284.414,3.741-3.39,21.483Zm5.952,1.244L41.311,91.22l-5.254,1.7Zm.978,2.144L45.4,78.585,46.988,92.92l-4.943-1.756Zm5.9,3.721,7.224-5.554L51.88,90.48l-4.155,2.426Zm9.151-1.88,5.628,8.564-8.09,4.72Zm-.54-1.161s0,0,0,.005a.016.016,0,0,0,0,.006l-1.576,8.506,1.413-16.762a.513.513,0,0,0-.258-.524L51.7,65.656l7.857-16.137ZM35.995,7.361,39.5,23.894l-11.2-5.06v-.005ZM28.809,21.572,40.335,38.638l1.3,27.624-9.644-26.58ZM30.7,39.678l-.974,6.451L26.5,39.678ZM27.8,54.513l-3.723,6.937-9.21-9.225,4.5-11.087ZM9.944,43.92l3.99,8.378-4.552,6.1Zm.188-1.429,8.485-1.535L14.375,51.4ZM9.618,59.465,14.31,53.18,27.473,86.074S22,79.114,21.854,78.888Zm12.2,21.317,5.348,6.237-6.337-.8Zm6.989,6.442-.046-.006L15.5,54.08l8.155,8.169-1.383,2.575c0,.009,0,.021-.008.029s-.016.021-.02.034a.664.664,0,0,0-.035.168c0,.006,0,.011,0,.017a.642.642,0,0,0,.031.228c0,.009,0,.018,0,.026L30.8,88.833S28.926,87.239,28.808,87.223Zm34.8-3.583L61.613,84.8l-5.879-8.946,4.485-1.97Zm-3.351-10.8L55.61,74.88l7.263-39.19,6.771,7.482.082.3Z" transform="translate(2.824 0)"/>
  </g>
</svg>
