<svg xmlns="http://www.w3.org/2000/svg" width="78.637" height="94.043">
    <defs>
        <style>
            .cls-1{fill:#365dff}
        </style>
    </defs>
    <g id="noun_Community_2088561" transform="translate(-13.281 84.5)">
        <g id="Group_12" data-name="Group 12" transform="translate(13.281 -84.5)">
            <path id="Path_8" data-name="Path 8" class="cls-1" d="M45.217 28.208a9.008 9.008 0 1 0-9.008 9.008 9.041 9.041 0 0 0 9.008-9.008zm-9.008 6.039a6.039 6.039 0 1 1 6.039-6.039 5.939 5.939 0 0 1-6.04 6.039z" transform="translate(-10.452 -2.668)"/>
            <path id="Path_9" data-name="Path 9" class="cls-1" d="M72.617 28.208a9.008 9.008 0 1 0-9.008 9.008 9.041 9.041 0 0 0 9.008-9.008zm-9.008 6.039a6.039 6.039 0 1 1 6.039-6.039 6.063 6.063 0 0 1-6.04 6.039z" transform="translate(-10.728 -2.668)"/>
            <path id="Path_10" data-name="Path 10" class="cls-1" d="M49.908 20.517a9.008 9.008 0 1 0-9.008-9.009 9.041 9.041 0 0 0 9.008 9.009zm0-15.047a6.039 6.039 0 1 1-6.039 6.039 6 6 0 0 1 6.039-6.039z" transform="translate(-10.59 -2.5)"/>
            <path id="Path_11" data-name="Path 11" class="cls-1" d="m34.85 70.549-1.386-11.582a8.863 8.863 0 0 0-5.049-6.929 9.031 9.031 0 1 0-14.849-6.929 9.347 9.347 0 0 0 3.168 6.929 9.021 9.021 0 0 0-5.049 6.929L10.3 70.351a3.97 3.97 0 0 0 .99 3.168 4.059 4.059 0 0 0 3.069 1.386h.495l.99 18.215a4 4 0 0 0 3.96 3.762h5.643a4 4 0 0 0 3.96-3.762l.99-18.215h.693a4.292 4.292 0 0 0 2.97-1.287 4.483 4.483 0 0 0 .792-3.069zm-12.275-31.38a6.039 6.039 0 1 1-6.039 6.039 6 6 0 0 1 6.039-6.039zm9.107 32.569a1.131 1.131 0 0 1-.693.3h-2.178a1.5 1.5 0 0 0-1.485 1.386l-.99 19.6a.977.977 0 0 1-.99.891H19.7a.977.977 0 0 1-.99-.891l-.99-19.6a1.438 1.438 0 0 0-1.485-1.386h-1.876a1.087 1.087 0 0 1-.891-.4 1.541 1.541 0 0 1-.3-.891l1.386-11.384a5.878 5.878 0 0 1 5.846-5.147h4.158a5.963 5.963 0 0 1 5.842 5.147l1.386 11.582a.672.672 0 0 1-.104.792z" transform="translate(-10.281 -2.838)"/>
            <path id="Path_12" data-name="Path 12" class="cls-1" d="m62.15 70.549-1.386-11.582a8.863 8.863 0 0 0-5.049-6.929 9.031 9.031 0 1 0-14.849-6.929 9.347 9.347 0 0 0 3.168 6.929 9.021 9.021 0 0 0-5.049 6.929L37.6 70.351a3.97 3.97 0 0 0 .99 3.168 4.059 4.059 0 0 0 3.069 1.386h.495l.99 18.215a4 4 0 0 0 3.96 3.762h5.643a4 4 0 0 0 3.96-3.762l.99-18.215h.693a4.292 4.292 0 0 0 2.97-1.287 4.483 4.483 0 0 0 .792-3.069zm-12.275-31.38a6.039 6.039 0 1 1-6.039 6.039 6 6 0 0 1 6.039-6.039zm9.107 32.569a1.131 1.131 0 0 1-.693.3H56.21a1.5 1.5 0 0 0-1.485 1.386l-.99 19.6a.977.977 0 0 1-.99.891H47.1a.977.977 0 0 1-.99-.891l-.99-19.6a1.438 1.438 0 0 0-1.485-1.386h-1.877a1.087 1.087 0 0 1-.891-.4 1.541 1.541 0 0 1-.3-.891l1.386-11.384a5.878 5.878 0 0 1 5.847-5.147h4.158a5.963 5.963 0 0 1 5.841 5.148l1.381 11.581a.854.854 0 0 1-.198.792z" transform="translate(-10.556 -2.838)"/>
            <path id="Path_13" data-name="Path 13" class="cls-1" d="m89.45 70.549-1.386-11.582a8.863 8.863 0 0 0-5.049-6.929 9.031 9.031 0 1 0-14.849-6.929 9.347 9.347 0 0 0 3.168 6.929 9.021 9.021 0 0 0-5.049 6.929L64.9 70.351a3.97 3.97 0 0 0 .99 3.168 4.059 4.059 0 0 0 3.069 1.386h.495l.99 18.215a4 4 0 0 0 3.96 3.762h5.643a4 4 0 0 0 3.96-3.762L85 74.905h.693a4.292 4.292 0 0 0 2.97-1.287 4.483 4.483 0 0 0 .787-3.069zm-12.275-31.38a6.039 6.039 0 1 1-6.039 6.039 6 6 0 0 1 6.039-6.039zm9.107 32.569a1.131 1.131 0 0 1-.693.3H83.51a1.5 1.5 0 0 0-1.485 1.386l-.99 19.6a.977.977 0 0 1-.99.891H74.4a.977.977 0 0 1-.99-.891l-.99-19.6a1.438 1.438 0 0 0-1.485-1.386h-1.98a1.087 1.087 0 0 1-.891-.4 1.541 1.541 0 0 1-.3-.891l1.386-11.384A5.878 5.878 0 0 1 75 54.216h4.158A5.963 5.963 0 0 1 85 59.363l1.386 11.582a.672.672 0 0 1-.104.792z" transform="translate(-10.831 -2.838)"/>
        </g>
    </g>
</svg>
