<svg xmlns="http://www.w3.org/2000/svg" width="73.388" height="94.043" viewBox="0 0 73.388 94.043">
  <defs>
    <style>
      .cls-1 {
        fill: #365dff;
      }
    </style>
  </defs>
  <g id="noun_Audit_1634578" transform="translate(-17 -7.987)">
    <g id="Group" transform="translate(17 7.987)">
      <path id="Compound_Path" data-name="Compound Path" class="cls-1" d="M70.55,14.882H62.982A9.174,9.174,0,0,0,53.579,8a9.4,9.4,0,0,0-9.4,6.88H36.723c-.688,0-1.376,0-1.376.688v5.045H25.485A8.6,8.6,0,0,0,17,28.757V94.462c0,4.472,4.013,7.568,8.485,7.568H81.9c4.472,0,8.485-3.1,8.485-7.568V28.757A8.6,8.6,0,0,0,81.9,20.615H72.041V15.57C72.041,14.882,71.238,14.882,70.55,14.882ZM37.64,17.175h7.453a1.376,1.376,0,0,0,1.147-1.147,7.453,7.453,0,0,1,14.678,0,1.376,1.376,0,0,0,1.147,1.147h7.683V28.642H37.64ZM81.9,22.909a6.307,6.307,0,0,1,6.192,5.848V94.462c0,3.211-2.981,5.275-6.192,5.275H25.485c-3.211,0-6.192-2.064-6.192-5.275V28.757a6.307,6.307,0,0,1,6.192-5.848h9.862V29.9c0,.573.688,1.032,1.376,1.032H70.55c.688,0,1.491-.459,1.491-1.032V22.909Z" transform="translate(-17 -7.987)"/>
      <path id="Path" class="cls-1" d="M40.989,52.459l-8.141,7.683-3.9-4.013a1.138,1.138,0,1,0-1.605,1.605l4.7,4.816a1.032,1.032,0,0,0,.8.344,1.261,1.261,0,0,0,.8-.344l8.944-8.485a1.147,1.147,0,1,0-1.605-1.605Z" transform="translate(-15.532 -1.531)"/>
      <path id="Path-2" data-name="Path" class="cls-1" d="M73.521,58H47.147a1.147,1.147,0,1,0,0,2.293H73.521a1.147,1.147,0,0,0,0-2.293Z" transform="translate(-12.746 -0.651)"/>
      <path id="Path-3" data-name="Path" class="cls-1" d="M40.989,36.459l-8.141,7.683-3.9-4.013a1.138,1.138,0,1,0-1.605,1.605l4.7,4.816a1.032,1.032,0,0,0,.8.344,1.261,1.261,0,0,0,.8-.344l8.944-8.485a1.147,1.147,0,1,0-1.605-1.605Z" transform="translate(-15.532 -3.878)"/>
      <path id="Path-4" data-name="Path" class="cls-1" d="M46,43.148a1.032,1.032,0,0,0,1.147,1.147H73.521a1.147,1.147,0,0,0,0-2.293H47.148A1.032,1.032,0,0,0,46,43.148Z" transform="translate(-12.747 -2.999)"/>
      <path id="Path-5" data-name="Path" class="cls-1" d="M40.989,68.459l-8.141,7.683-3.9-4.013a1.138,1.138,0,1,0-1.605,1.605l4.7,4.816a1.032,1.032,0,0,0,.8.344,1.261,1.261,0,0,0,.8-.344l8.944-8.485a1.147,1.147,0,1,0-1.605-1.605Z" transform="translate(-15.532 0.816)"/>
      <path id="Path-6" data-name="Path" class="cls-1" d="M73.521,74H47.147a1.147,1.147,0,1,0,0,2.293H73.521a1.147,1.147,0,0,0,0-2.293Z" transform="translate(-12.746 1.696)"/>
    </g>
  </g>
</svg>
