<svg xmlns="http://www.w3.org/2000/svg" width="84.439" height="94.043">
    <defs>
        <style>
            .cls-1{fill:#365dff}
        </style>
    </defs>
    <g id="noun_ambassador_4041975" transform="translate(12.03 -138)">
        <g id="Group_62" data-name="Group 62" transform="translate(-12.03 138)">
            <g id="Group_57" data-name="Group 57">
                <path id="Path_16" data-name="Path 16" class="cls-1" d="M106.632 35.542a6.38 6.38 0 0 0-4.839-1.81v-8.564a1.01 1.01 0 0 0-1.406-.916l-17.365 7.717a.985.985 0 0 0-.131.07H72.408a7.872 7.872 0 0 0-2.1 15.456v7.429a23.211 23.211 0 0 0-13.9-10.479v-4.317a13.747 13.747 0 0 0 5.93-9.322c4.873-1.145 5.749-7.441 5.744-11.55.208-5.719-2.3-12.728-8.769-13.439a6.566 6.566 0 0 0-5.9-5.559c-5.567-.5-10.961-.524-15.975 2.368-6.6 3.809-8.812 11.232-8.7 18.47.118 7.9 4.656 9.585 6.536 9.942a13.752 13.752 0 0 0 5.822 9.041v4.388A23.029 23.029 0 0 0 24 66.725v20.819a1 1 0 1 0 2 0v-17.33l7.74-.016v11.933a1 1 0 1 0 2 0V63.182a1 1 0 1 0-2 0V68.2l-7.74.011v-1.486a20.9 20.9 0 0 1 15.093-20.183c-.079 4.46 2.918 8.5 7.659 8.5 4.759 0 7.73-4.051 7.659-8.515a21.2 21.2 0 0 1 13.77 12.689h-8.133a1 1 0 0 0-1 1v32.725a1 1 0 0 0 1 1l37.386.1a1 1 0 0 0 1-1V60.216a1 1 0 0 0-1-1H79.018v-2.421a1 1 0 0 0-1-1 1 1 0 0 0-1 1v4.708a2.388 2.388 0 0 1-2.36 2.354 2.358 2.358 0 0 1-2.349-2.357V47.782h10.579a1 1 0 0 0 .136.073l17.362 7.563a1.011 1.011 0 0 0 1.4-.918v-8.413a6.287 6.287 0 0 0 6.65-6.174 6.139 6.139 0 0 0-1.804-4.371zM36.074 14.605a1 1 0 0 0-1 1s0 13.271.006 13.346c-1.526-.457-4.256-2.084-4.343-7.886C30.632 14.078 32.848 6.91 39.6 3.76c4.427-2.06 8.945-1.835 13.211-1.527a4.68 4.68 0 0 1 4.572 4.524 1 1 0 0 0 .975 1c5.809.148 7.93 6.472 7.727 11.437-.122 3.077-.227 7.926-3.587 9.452V15.559c0-.227-.012-.46-.034-.691a1.008 1.008 0 0 0-1.7-.608C49.729 25.353 44.127 26.33 41.37 25.2c-4.218-1.734-4.294-9.275-4.3-9.595a1 1 0 0 0-.996-1zM54.41 47.374a5.658 5.658 0 1 1-11.316 0V41.21a13.761 13.761 0 0 0 11.316.031zm-5.624-6.924a11.73 11.73 0 0 1-11.712-11.721v-4.91a7.378 7.378 0 0 0 3.536 3.231c6.99 2.873 15.49-5.503 19.89-9.725v11.4A11.73 11.73 0 0 1 48.786 40.45zm24.837 25.28c0 .26-.064 11.446-.06 11.661 0 .116 0 .206.006.268a1.017 1.017 0 0 0 1.007 1.049h12.331a1 1 0 0 0 1-1V66.23a1 1 0 1 0-2 0v10.476H75.558c-.009-2.392.029-8.713.066-10.959a4.46 4.46 0 0 0 3.392-4.529h19.418v30.82l-35.385-.1V61.217h7.26a4.459 4.459 0 0 0 3.314 4.513zm8.8-19.953h-10.01a5.868 5.868 0 0 1 0-11.736h10.018zm17.362 7.193-15.361-6.692V33.535l15.366-6.828zm2.482-8.887h-.478v-8.348a4.286 4.286 0 0 1 4.645 4.175 4.177 4.177 0 0 1-4.167 4.173z" transform="translate(-24)"/>
            </g>
            <g id="Group_59" data-name="Group 59" transform="translate(52.618 50.893)">
                <g id="Group_58" data-name="Group 58">
                    <ellipse id="Ellipse_19" data-name="Ellipse 19" class="cls-1" cx="1.301" cy="1.302" rx="1.301" ry="1.302"/>
                </g>
            </g>
            <g id="Group_61" data-name="Group 61" transform="translate(9.34 86.242)">
                <g id="Group_60" data-name="Group 60">
                    <ellipse id="Ellipse_20" data-name="Ellipse 20" class="cls-1" cx="1.301" cy="1.302" rx="1.301" ry="1.302"/>
                </g>
            </g>
        </g>
    </g>
</svg>
