<svg xmlns="http://www.w3.org/2000/svg" width="73.388" height="84.34" viewBox="0 0 73.388 84.34">
  <defs>
    <style>
      .cls-1 {
        fill: #365dff;
      }
    </style>
  </defs>
  <g id="noun_process_4021747" transform="translate(-50.946 -63.129)">
    <path id="Path_3" data-name="Path 3" class="cls-1" d="M269.069,100.707V68.31l4.213,4.515a1.375,1.375,0,1,0,2.012-1.876L268.7,63.883a1.423,1.423,0,0,0-2.012,0l-6.594,7.067a1.375,1.375,0,1,0,2.009,1.876l4.215-4.515v32.4a3.43,3.43,0,0,1-1.9,3.081l-25.059,12.528a6.157,6.157,0,0,0-3.422,5.538V146.3a1.375,1.375,0,1,0,2.748,0V121.854a3.424,3.424,0,0,1,1.9-3.079l25.057-12.528A6.161,6.161,0,0,0,269.069,100.707Z" transform="translate(-152.686 -0.263)"/>
    <path id="Path_4" data-name="Path 4" class="cls-1" d="M140.04,138.037l-4.215,4.515V110.3a3.422,3.422,0,0,1,1.92-3.085L163.465,94.5a6.153,6.153,0,0,0,3.45-5.551V64.56a1.375,1.375,0,1,0-2.748,0V88.947a3.422,3.422,0,0,1-1.92,3.085l-25.721,12.716a6.153,6.153,0,0,0-3.45,5.551v32.252l-4.215-4.515a1.375,1.375,0,1,0-2.009,1.876l6.594,7.067a1.377,1.377,0,0,0,2.009,0l6.6-7.067a1.375,1.375,0,0,0-2.012-1.876Z" transform="translate(-67.138)"/>
    <path id="Path_5" data-name="Path 5" class="cls-1" d="M331.781,295.232a1.367,1.367,0,0,0-.875-.656l-9.4-2.213a1.375,1.375,0,1,0-.63,2.676l5.958,1.4-17.146,8.545a6.157,6.157,0,0,0-3.431,5.543v14.588a1.375,1.375,0,1,0,2.748,0V310.528a3.424,3.424,0,0,1,1.909-3.081l17.347-8.641-1.839,5.941a1.375,1.375,0,1,0,2.624.813l2.858-9.233A1.373,1.373,0,0,0,331.781,295.232Z" transform="translate(-207.631 -179.076)"/>
    <path id="Path_6" data-name="Path 6" class="cls-1" d="M98.547,102.325a1.375,1.375,0,0,0,.505-2.654l-5.519-2.186,25.1-12.858a6.168,6.168,0,0,0,3.371-5.512V64.755a1.375,1.375,0,0,0-2.751,0V79.12a3.428,3.428,0,0,1-1.874,3.061l-25.2,12.9,2.781-5.827a1.375,1.375,0,1,0-2.482-1.185l-4.154,8.724a1.371,1.371,0,0,0,.735,1.869l8.991,3.553A1.37,1.37,0,0,0,98.547,102.325Z" transform="translate(-37.246 -0.196)"/>
  </g>
</svg>
